<svg xmlns="http://www.w3.org/2000/svg" viewBox="0 0 1920 1080.0378"><title>Asset 6Oversikt logo varianter</title><g id="Layer_2" data-name="Layer 2"><g id="Layer_1-2" data-name="Layer 1"><polygon points="1920 485.086 0 488.086 0 0 1920 0 1920 485.086" fill="#007aca"/><path d="M0,403.88817c130.28247-19.46393,168.80284-82.6153,230.98311-84.00558S444.1726,280.95474,444.1726,280.95474l99.19233,97.31964L742.69734,292.077S844.47852,410.25083,882.68325,406.08s403.88393-144.58918,403.88393-144.58918l182.09936,123.735L1789.93125,20.43829l129.69027,218.808L1920,1079.915,0,1080Z" fill="#232323"/><polygon points="1605.898 229.488 1683.034 280.132 1807.697 188.112 1913.185 228.473 1789.931 20.523 1605.898 229.488" fill="#fff"/><polygon points="1160.948 309.191 1210.137 353.334 1264.319 331.263 1356.15 390.872 1362.14 312.927 1286.567 261.576 1160.948 309.191" fill="#fff"/><polygon points="616.25 346.842 652.921 404.775 742.697 364.457 775.449 390.872 789.439 342.011 742.697 292.162 616.25 346.842" fill="#fff"/><polygon points="337.294 304.797 426.407 364.457 490.226 326.224 444.173 281.04 337.294 304.797" fill="#fff"/><path d="M541.8308,376.76834S747.887,352.2196,656.54385,572.95963C586.99051,741.04242.04063,1079.954.04063,1079.954l1199.83372.03779s149.858-512.62368-67.68975-641.91588C950.57894,330.14462,786.75991,331.38468,711.06088,316.60666c-80.765-15.767-218.67193,11.65325-218.67193,11.65325Z" fill="#915ad5"/><path d="M1425.66885,356.09426s-82.66123,154.54369-137.05263,363.538c-30.996,119.09939-88.7825,360.4055-88.7825,360.4055L1920,1080V431.98177s-330.82439-165.64508-372.97474-150.942-115.73315,1.04243-137.88111,23.67718-23.56,24.14008-23.56,24.14008Z" fill="#c59a2d"/><path d="M567.741,837.5685c-5.50163,21.43841-43.25613,9.06395-65.04882,5.19712-14.612-2.59272-32.04576-2.92621-43.33279,6.1107-64.19223,51.39518-74.96315,89.57527-121.44116,121.27214-54.79054,37.36583-4.80883,109.7665-17.4417,109.85154s815.85346,0,815.85346,0-82.93741-121.48022-46.93621-187.30879,115.6855-61.98475,60.41478-118.42095-17.24111-68.47708-137.55643-87.21987S611.70059,666.26955,567.741,837.5685Z" fill="#4f3914"/><path d="M517.0866,159.65758c20.34652-3.42588,44.91589,1.02588,61.133,12.15912,20.77526,14.24818,19.98528,34.04745-1.77278,44.22578-21.74615,10.18538-56.22045,6.88082-76.99459-7.37115-15.89352-10.908-19.15975-25.0667-10.07718-35.6719L565.00073,203.582Z" fill="#fff"/><path d="M848.32655,145.94057,832.09283,115.8991c-2.13478-3.51362-3.55812-7.21525-5.34419-10.81688l-.17578.04525c.30043,4.08108,1.01289,7.96081.95553,12.134l.14425,33.99561-13.82612,3.559,1.32185-71.61478,10.81126-2.78292L862.517,142.28782Z" fill="#fff"/><path d="M620.10311,133.4128l16.24314,30.03731c2.13181,3.51434,3.55388,7.21106,5.33708,10.82181l.17576-.04524c-.30074-4.081-1.00827-7.9686-.94969-12.14384l-.15206-33.98662,13.83071-3.56015-1.31528,71.6131-10.8211,2.78545L605.92247,137.063Z" fill="#fff"/><path d="M677.72782,118.57969l17.20661,66.84539-13.21527,3.40173-17.20661-66.8454Z" fill="#fff"/><path d="M752.40989,99.35585l16.62454,37.78228.17578-.04525-4.84433-40.81461,17.73856-4.56606,24.21378,65.04169-13.56359,3.49139-15.58809-47.31536-.17578.04525,2.11127,17.03473,2.47045,33.11376-10.188,2.62248-14.71295-30.34253-6.05471-14.31876-.31886-1.23872-.16956.04365,10.44449,48.63936-14.19013,3.65267-11.35658-68.35125Z" fill="#fff"/><path d="M710.48142,110.14861c-1.85888,2.17935-2.8863,5.40574-3.32969,8.55508-1.31177,9.21889,4.04129,14.6681,8.761,19.46955.68653.70774,1.40306,1.42486,2.076,2.14622,10.27361,10.39511,15.42134,18.67516,13.40041,32.8842-.14587,1.00892-.58323,2.95184-.58323,2.95184L714.886,180.25342a17.13594,17.13594,0,0,0,3.23565-7.55776c1.38885-9.76682-5.00216-16.71812-11.18619-23.44836-7.4324-8.09788-15.12314-16.46992-13.04372-31.19489.20066-1.39125.78835-3.83639.78835-3.83639Z" fill="#fff"/><path d="M1086.12088,72.80789l25.85306,10.70444-9.717,23.75459,33.64734-13.68425a1.51973,1.51973,0,0,1,.67778.11958l27.95642,11.57737a.32208.32208,0,0,1,.184.44019L1129.929,120.02l-.07133.17164q.41375.17367,14.43006,34.4812l-.07126.17251-27.991-11.59074-14.57191-33.65048-.31034-.12828-9.83175,23.54456-26.2311-10.86221L1085.684,72.98979C1085.81335,72.80123,1085.96016,72.74078,1086.12088,72.80789Z" fill="#fff"/><path d="M1235.03406,134.43027l-3.54946,56.51316-26.072-10.75636,2.99552-45.90423L1178.077,168.86712l-26.21678-10.896,37.2695-42.54905Z" fill="#fff"/><path d="M1262.18831,145.7973l48.3198,20.00927q25.1613,10.41957,25.348,23.15269a21.22379,21.22379,0,0,1-1.08331,5.2528q-3.73244,9.00715-20.34683,11.83188l-.137-.0571-.0571.137,9.292,22.77115-.07125.17251-27.75-11.49093L1283.02076,189.52l.12828-.31034.17164.07134q4.03924,1.67238,13.03542.05981a7.31893,7.31893,0,0,0,4.721-4.27083q1.31262-3.17639-.98014-7.401a6.26034,6.26034,0,0,0-2.9253-2.30368l-14.28941-5.91688-15.00778,36.24037a.29741.29741,0,0,1-.44043.18136l-26.05773-10.791,20.33864-49.11489A.36411.36411,0,0,1,1262.18831,145.7973Z" fill="#fff"/><path d="M1358.82526,185.73278l78.865,32.65885q.32994.17769.2169.45458l-5.24289,12.9512-26.68023-11.0483-14.892,35.96454a.29621.29621,0,0,1-.4387.18119l-25.7838-10.67683a.29559.29559,0,0,1-.18024-.43791l14.892-35.96454-26.21695-10.89775a.29615.29615,0,0,1-.18207-.43862l5.20259-12.56418A.32157.32157,0,0,1,1358.82526,185.73278Z" fill="#fff"/><path d="M893.5927,87.38636s3.386.12755,3.20042,2.453-4.93049,38.53422,37.39567,36.71812c0,0,7.13854-5.05253,8.74913-5.92287s7.55633-3.13559,8.81184-4.2055,14.81309-12.88768,33.41177-12.05972c0,0,3.48813.27839,7.84405-5.31016,0,0,3.70846-4.27033,5.67413-4.94109s2.42288-.32034,3.49279.93517,1.8822,1.8055,1.94025,2.86609,1.07457,1.91228-1.48983,3.6483-10.66141,6.99744-11.29488,10.286-.12288,4.04279-1.96313,8.14828-12.25905,13.57844-15.94263,15.85212-18.52,11.87748-18.95388,14.81095,11.77448,9.18733,20.69737,9.08623c0,0,4.778-.37482,4.9568,3.46373s-1.79113,1.21253-1.79113,1.21253-25.84862,19.69843-33.56132-6.31717c0,0-27.22407,29.64865-1.69066,39.42065,0,0,3.04957,2.55508.8983,5.55126a10.57324,10.57324,0,0,0-1.78008-1.65466c-1.47372-1.20211-43.7609-15.25079-14.43006-61.28415a2.43912,2.43912,0,0,0-2.33008-.84237c-1.26016.41313-43.79522,1.27077-33.033-48.47063Z" fill="#f7c72f"/><path d="M998.67971,94.1181c.71949,1.71271.37373,2.82669,1.59915,4.63685s1.31392,3.65453,2.34406,2.81271,1.95047-1.31875,1.72015-2.48353.57846-.65017-1.07773-3.34526C1000.91379,91.91221,998.67971,94.1181,998.67971,94.1181Z"/><path d="M978.33144,164.42749c-.61413-2.23493-1.09569-3.92034-1.23562-4.49663-.06342-.26116,2.375.48876,2.9069,2.34911.28568.99922.10206,4.28716-.472,3.53544A16.73376,16.73376,0,0,0,978.33144,164.42749Z"/><path d="M943.07946,197.531c-.47422-.43866-3.721,2.519-3.721,2.519l4.61933,3.03224S947.19894,201.34156,943.07946,197.531Z"/><path d="M892.40457,90.83042c-.11871.60787,4.238.82444,4.238.82444s2.19973-4.96256-3.04984-4.2685C893.5927,87.38636,893.09857,87.27668,892.40457,90.83042Z"/><path d="M939.19471,127.1282c1.1233,1.65931,4.53473-1.75,4.53473-1.75" fill="none" stroke="#000" stroke-miterlimit="10" stroke-width="0.02"/><ellipse cx="959.20657" cy="127.58608" rx="4.8158" ry="2.18594" transform="translate(93.37095 559.65568) rotate(-34.09669)"/><ellipse cx="955.06878" cy="119.02171" rx="4.8158" ry="2.18594" transform="translate(97.46075 555.86379) rotate(-34.09669)"/><ellipse cx="960.36043" cy="126.51166" rx="2.4079" ry="1.09297" transform="translate(94.17162 560.11782) rotate(-34.09669)" fill="#fff"/><ellipse cx="955.8223" cy="118.29163" rx="2.4079" ry="1.09297" transform="translate(97.99956 556.1607) rotate(-34.09669)" fill="#fff"/><path d="M947.25091,134.80434s-2.93646,1.3692-3.21357,3.70158" fill="none" stroke="#000" stroke-miterlimit="10" stroke-width="0.02"/><path d="M941.21483,127.32992s-2.60235,4.80988,4.20851,8.73737l-.57081.61517S938.12609,133.36868,941.21483,127.32992Z"/><path d="M1000.95331,100.3515s-15.336,8.91543-16.01282,10.84015.35833,5.40351-7.03317,10.40732-19.09953,14.02962-20.90969,15.255-3.88728.43178-4.67626,3.16568-2.28367,4.40567-3.60178,4.41808-1.98888-1.95326-6.35878,1.665-20.85155,19.24029-10.11391,39.326c0,0-2.279-10.72262,12.52322-27.3184,0,0,2.48079,10.721,11.60281,13.088,4.39269,1.13981,13.53477-.40832,21.95851-6.77085l-1.23562-4.49663s-20.40624-2.41038-22.62742-9.26586c0,0,8.28066-7.7046,10.1275-8.97946s9.78814-6.44852,10.50531-7.00611,6.52349-5.47615,8.57951-7.63994,4.61189-4.51509,5.68419-7.03756c2.56085-6.02409.89342-5.26214,1.96313-7.29819s11.29488-11.13608,11.29488-11.13608Z" fill="#c59a2d"/><circle cx="1140.34643" cy="528.48623" r="54.5788" fill="#dbab2f" stroke="#d79a0e" stroke-miterlimit="10" stroke-width="18"/><path d="M541.10924,640.51878s-2.0637-2.68746-.15545-4.02933,32.80572-20.80818,4.384-52.22487c0,0-8.44641-2.26827-10.14457-2.95217s-7.23778-3.81374-8.86284-4.09693S506.95372,574.043,495.71627,559.2c0,0-2.0128-2.86237-9.09513-2.64677,0,0-5.65439-.12774-7.42566-1.21235s-1.79348-1.66024-1.51029-3.28529.18787-2.60139.96709-3.32322.7857-2.048,3.75911-1.18269,12.19255,3.73788,15.128,2.12579,3.19-2.48662,7.5247-3.69151,18.27764.76573,22.37943,2.14911,20.9659,6.67045,23.50067,5.13147-.44664-14.928-6.22144-21.731c0,0-3.33908-3.438-.49892-6.02647s2.07681.60437,2.07681.60437,31.66439,7.31748,16.56587,29.8637c0,0,40.20074,2.02318,31.41944-23.86766,0,0,.01945-3.97843,3.699-4.23569a10.57328,10.57328,0,0,0-.137,2.42649c.01572,1.90176,16.20225,43.41762-37.954,50.2341a2.43914,2.43914,0,0,0,.83936,2.33117c1.12254.70611,28.93994,32.89553-16.21475,56.37074Z" fill="#f7c72f"/><path d="M546.30066,526.11144c-1.328,1.8996-2.31772,3.34631-2.67192,3.822-.16051.21555-1.14019-2.14-.048-3.73712.58664-.85785,3.23443-2.81578,3.02241-1.894A16.73191,16.73191,0,0,0,546.30066,526.11144Z"/><path d="M594.286,532.10748c-.03484.645,4.31451,1.25557,4.31451,1.25557l-.61554-5.49126S594.58861,526.504,594.286,532.10748Z"/><path d="M542.581,580.04738c.55989-1.924-4.24217-2.37283-4.24217-2.37283" fill="none" stroke="#000" stroke-miterlimit="10" stroke-width="0.02"/><ellipse cx="530.15641" cy="564.35295" rx="2.18594" ry="4.8158" transform="translate(-159.85377 915.70182) rotate(-73.77446)"/><ellipse cx="526.20672" cy="573.00568" rx="2.18594" ry="4.8158" transform="matrix(0.27942, -0.96017, 0.96017, 0.27942, -171.00792, 918.14444)"/><ellipse cx="528.59278" cy="564.15088" rx="1.09297" ry="2.4079" transform="matrix(0.27942, -0.96017, 0.96017, 0.27942, -160.78646, 914.05487)" fill="#fff"/><ellipse cx="525.16371" cy="572.89187" rx="1.09297" ry="2.4079" transform="matrix(0.27942, -0.96017, 0.96017, 0.27942, -171.65022, 917.06097)" fill="#fff"/><path d="M543.34524,568.946s2.92864,1.38585,4.90068.11" fill="none" stroke="#000" stroke-miterlimit="10" stroke-width="0.02"/><path d="M541.44643,578.36381s5.36343-1.06808,4.03769-8.81761l.83791.04655S548.06621,576.88548,541.44643,578.36381Z"/><path d="M482.54137,549.61113s16.6533,6.11108,18.56679,5.40313,3.93-3.72577,12.50043-1.23169,22.99232,5.74241,25.0912,6.3532,2.81422,2.71616,5.4221,1.57789,4.84887-1.05527,5.7-.04871-.23348,2.77783,5.34131,3.831,28.12131,3.764,36.72457-17.3243c0,0-6.79757,8.60008-29.02123,7.80349,0,0,6.66753-8.75439,2.66513-17.28637-1.92735-4.10855-8.95581-10.1563-19.231-12.57733l-2.67192,3.822s11.17362,17.24455,7.31547,23.3311c0,0-11.21677-1.454-13.37711-2.0615s-11.21252-3.41623-12.09955-3.61219-8.37975-1.52444-11.35782-1.72534-6.41957-.66678-9.04562.11845c-6.27144,1.87525-4.62041,2.6721-6.87043,3.14875s-15.78229-1.583-15.78229-1.583Z" fill="#c59a2d"/><text transform="translate(178.75934 982.47412)" font-size="50" fill="#fff" font-family="MarioKartF2, Mario Kart F2">Press any button to start</text><rect x="769.72806" y="616.90833" width="114.51892" height="114.51892" rx="46.86415" fill="#282827"/><path d="M1049.39017,632.73739s10.75937-28.87543,40.88684-26.83783c10.17782.68835,33.98917,8.93265,28.95346,25.42658-3.98312,13.04629-10.30513,11.54057-41.57418,17.23252-30.33284,5.52154-31.00074,21.9417-40.30969,27.27424C1025.9045,682.38739,1049.39017,632.73739,1049.39017,632.73739Z" fill="#4f3914"/><path d="M1062.94,664.49842s4.5529-4.84669,10.37728-1.92461c1.96762.98715,6.762,5.45682,3.637,7.47781s-2.85306-.0679-9.71168-.044c-3.46627.01208-8.45942.32174-10.29889,2.05966C1052.55934,676.20965,1062.94,664.49842,1062.94,664.49842Z" fill="#4f3914"/><path d="M1032.55465,626.03406s-3.09768-5.8842,1.56351-10.43779c1.57466-1.53833,7.3631-4.61367,8.255-1.00058s-.99428,2.67506-3.2076,9.16678c-1.11858,3.28085-2.4536,8.10217-1.41028,10.40772C1040.242,639.6655,1032.55465,626.03406,1032.55465,626.03406Z" fill="#4f3914"/><path d="M541.18258,758.98114s-8.78637-29.53565-38.98267-29.53565c-10.20107,0-34.51446,6.61876-30.60322,23.41489,3.0937,13.28533,9.50291,12.20964,40.3166,19.99861,29.89112,7.55577,29.44948,23.98357,38.37739,29.93211C561.26441,810.10275,541.18258,758.98114,541.18258,758.98114Z" fill="#4f3914"/><path d="M525.5204,789.75546s-4.21547-5.14288-10.22375-2.62047c-2.02975.85213-7.11479,4.98809-4.13332,7.21534s2.85113.12478,9.69251.61142c3.45756.24595,8.41843.89183,10.13644,2.74992C535.08719,802.14047,525.5204,789.75546,525.5204,789.75546Z" fill="#4f3914"/><path d="M558.43206,753.42912s3.48768-5.66175-.85562-10.5195c-1.46727-1.64107-7.035-5.1-8.16863-1.55533s.81151,2.736,2.58173,9.36233c.89465,3.34886,1.90128,8.24927.70477,10.47916C549.84239,766.51077,558.43206,753.42912,558.43206,753.42912Z" fill="#4f3914"/><polygon points="669.321 720.817 663.75 747.803 735.881 750.398 729.866 714.126 669.321 720.817" fill="#9a1c1f"/><polygon points="935.559 707.494 839.468 654.277 831.366 653.703 896.424 714.798 935.559 707.494" fill="#c02026"/><polygon points="935.559 707.494 946.924 749.429 933.981 750.91 895.806 714.231 935.559 707.494" fill="#9a1c1f"/><polyline points="895.806 714.231 897.196 713.939 831 653.703" fill="#9a1c1f"/><rect x="893.75368" y="686.17533" width="109.2972" height="114.51892" rx="45.78325" fill="#282827"/><ellipse cx="949.05422" cy="744.11511" rx="22.06341" ry="27.59754" fill="#f7c72f"/><polygon points="718.326 628.919 718.326 701.778 729.866 714.126 718.326 628.919" fill="#9a1c1f"/><rect x="593.81181" y="621.69084" width="103.83301" height="114.51892" rx="44.62414" fill="#282827"/><ellipse cx="632.69318" cy="676.42911" rx="18.10491" ry="26.62186" fill="#f7c72f"/><polygon points="679.848 718.734 632.693 666.27 681.588 662.465 729.866 714.126 679.848 718.734" fill="#c02026"/><polygon points="632.693 666.27 642.465 714.126 673.836 752.96 680.426 715.439 632.693 666.27" fill="#9a1c1f"/><rect x="637.24442" y="709.21668" width="109.2972" height="114.51892" rx="45.78325" fill="#282827"/><ellipse cx="674.6158" cy="766.07796" rx="17.27722" ry="27.59754" fill="#f7c72f"/><path d="M681.5879,662.46544l-.24481-9.69042a1.18627,1.18627,0,0,1,1.915-.96571l36.09222,28.1223-1.024,21.84592Z" fill="#9a1c1f"/><path d="M702.37889,636.37547l14.84076-9.577c.0933-.06021,8.04913-3.56978,8.14964-3.617,6.282-2.94963-1.273,6.51769-1.273,7.30543L732.636,678.9503c0,1.29081,5.18521,18.01827-5.83074,11.64932l-45.4622-37.8246C680.69379,651.89448,701.54859,636.45982,702.37889,636.37547Z" fill="#c02026"/><path d="M74.39068,144.53736a27.61417,27.61417,0,0,0,27.432,27.64446c1.14045,0,154.61412-.23115,154.61412-.23115a27.4278,27.4278,0,1,0-9.11742-53.538A37.32769,37.32769,0,0,0,208.54515,97.8076,53.73932,53.73932,0,0,0,105.203,117.32011a27.38893,27.38893,0,0,0-30.81232,27.21725Z" fill="#fff"/><path d="M1559.82654,91.30244a17.78484,17.78484,0,0,0-2.17358.1381,34.55548,34.55548,0,0,0-66.45111-12.54695,24.00252,24.00252,0,0,0-24.93265,13.24947,17.63773,17.63773,0,1,0-5.86269,34.426s98.6867.14863,99.42.14863a17.70778,17.70778,0,0,0,0-35.41529Z" fill="#fff"/><ellipse cx="818.56839" cy="404.77475" rx="21.53252" ry="43.06504" fill="#dbab2f" stroke="#d79a0e" stroke-miterlimit="10" stroke-width="18"/><circle cx="551.41547" cy="364.45661" r="15.66303" fill="#dbab2f" stroke="#d79a0e" stroke-miterlimit="10" stroke-width="7"/><circle cx="1512.44337" cy="473.90743" r="68.56812" fill="#fff"/><circle cx="1775.67191" cy="455.49303" r="68.56812" fill="#fff"/><circle cx="1493.52642" cy="533.36305" r="31.43165" fill="#fff"/><circle cx="1560.51342" cy="533.36305" r="50.3486" fill="#fff"/><circle cx="1724.07193" cy="505.83295" r="50.3486" fill="#fff"/><circle cx="1731.69197" cy="549.14776" r="57.39108" fill="#fff"/><circle cx="1637.15853" cy="493.71298" r="57.39108" fill="#fff"/><polygon points="1631.881 509.94 1632.007 501.378 1646.351 501.378 1646.351 510.288 1631.881 509.94"/><polygon points="1512.443 587.273 1564.659 546.338 1592.296 547.317 1572.543 591.174 1512.443 587.273" fill="#007aca"/><polygon points="1512.443 587.273 1519.925 617.975 1577.33 620.041 1572.543 591.174 1512.443 587.273" fill="#0062a3"/><polygon points="1764.135 587.273 1711.92 546.338 1684.283 547.317 1704.036 591.174 1764.135 587.273" fill="#007aca"/><polygon points="1764.135 587.273 1756.653 617.975 1699.249 620.041 1704.036 591.174 1764.135 587.273" fill="#0062a3"/><path d="M1562.16681,610.80312l42.13486-91.117a7.95169,7.95169,0,0,1,4.36877-4.1013c27.73274-10.54139,37.91943-7.14872,57.09828-2.90219a8.68115,8.68115,0,0,1,6.03837,4.9132l13.295,29.6672,28.60126,63.82267a9.12736,9.12736,0,0,1-8.32692,12.89856l-134.94017-.22286A9.12737,9.12737,0,0,1,1562.16681,610.80312Z" fill="#007aca"/><rect x="1467.59886" y="590.80219" width="86.98289" height="91.13853" rx="36.43606" fill="#282827"/><ellipse cx="1536.96771" cy="634.75251" rx="8.48083" ry="21.96318" fill="#f7c72f"/><rect x="1724.15856" y="591.24076" width="86.98289" height="91.13853" rx="36.43606" transform="translate(-5.98164 16.85492) rotate(-0.5454)" fill="#282827"/><ellipse cx="1741.78918" cy="638.67523" rx="8.48083" ry="21.96318" transform="translate(-6.00057 16.60884) rotate(-0.5454)" fill="#f7c72f"/><path d="M1767.44053,648.44607h0a12.6018,12.6018,0,0,1,12.17833-2.3293c6.901,2.4574,15.53515,8.53538,11.17382,23.4019a13.14094,13.14094,0,0,1-3.24788,5.52437c-5.78322,5.858-22.1198,21.03547-28.64839,22.213-15.68593,2.82921-22.533-3.06542-26.09487-5.79886-6.83373-5.24432-15.54788-39.57042-20.87589-40.01213-37.14409-3.07937-131.05422-4.63908-139.17262.57989s-12.72066,23.91749-16.84043,31.19668c-3.71785,6.569-7.337,13.72987-22.59182,14.09836-19.33952.46716-47.28971-24.31243-48.44949-25.79411a15.93045,15.93045,0,0,1-.2243-16.79784c4.00332-6.64826,14.76541-10.09288,20.52559-4.89228,3.94421,3.56105,15.70171,12.16038,20.00606,11.01784,8.73853-2.31955,16.19489-28.00191,19.16-33.18386,4.86737-8.50648,16.06282-15.72714,29.57418-16.23681,10.53821-.39751,122.88905-.27539,137.11738-.02618a68.72378,68.72378,0,0,1,8.54994,1.11573c5.06128,1.884,18.37827,7.05648,24.23926,22.68578a91.37017,91.37017,0,0,0,4.0053,9.31993C1751.53667,651.81194,1754.2336,664.91278,1767.44053,648.44607Z" fill="#97a1a3"/><polygon points="1578.172 604.485 1613.586 525.62 1583.432 604.485 1578.172 604.485" fill="#03a5ff"/><polyline points="1692.711 604.485 1697.972 604.485 1662.557 525.62" fill="#03a5ff"/><ellipse cx="1638.28931" cy="545.13379" rx="26.76755" ry="19.71612" fill="#fff"/><ellipse cx="1640.16607" cy="493.71298" rx="29.70045" ry="8.69829"/><path d="M1659.82336,491.90983c0,1.08877-8.6562,1.97138-19.33416,1.97138s-19.33417-.88261-19.33417-1.97138,8.33308-2.27768,19.011-2.27768a125.70167,125.70167,0,0,1,15.44344,1.049C1658.24686,491.01809,1659.82336,491.44519,1659.82336,491.90983Z" fill="#fff"/><polygon points="1571.282 591.092 1591.537 547.29 1569.223 590.959 1571.282 591.092" fill="#0062a3"/><polyline points="1704.853 591.092 1707.104 591.174 1684.658 547.263" fill="#0062a3"/><path d="M1624.63983,541.98535a7.93712,7.93712,0,0,1,5.02864,2.41841c1.48316,1.69889.97282,3.39778-1.14065,3.79464a7.7196,7.7196,0,0,1-6.51063-2.35729c-1.13448-1.30036-1.10168-2.60075-.07758-3.31749l5.874,4.33907Z" fill="#da1150"/><path d="M1653.66311,548.1882l-.737-2.96675c-.10666-.35226-.14746-.70494-.22192-1.057h-.01625c-.065.36051-.08985.71277-.188,1.07329l-.74615,2.9505h-1.27809l1.71277-6.17921h.9994l1.78695,6.17921Z" fill="#221f1f"/><path d="M1634.15663,542.009l.73789,2.9666c.1064.35225.14719.70448.2212,1.05731h.01625c.065-.36052.09042-.71335.18867-1.074l.74528-2.94989h1.27851l-1.71217,6.17921h-1.0003l-1.78619-6.17921Z" fill="#221f1f"/><path d="M1639.48348,542.009v6.17921h-1.22162V542.009Z" fill="#221f1f"/><path d="M1646.38712,542.009l.59812,3.64657h.01625l.49085-3.64657h1.63976l.64775,6.17921H1648.526l-.29552-4.44992h-.01625l-.19711,1.524-.5248,2.926h-.94178l-.59842-2.95891-.20538-1.3765v-.11451h-.01567l-.18,4.44992h-1.31174l.54078-6.17921Z" fill="#221f1f"/><path d="M1642.51124,542.009a1.5316,1.5316,0,0,0-.47959.66738,1.97788,1.97788,0,0,0,.32505,1.88344c.04373.07668.08984.15484.13209.2324a3.14785,3.14785,0,0,1,.4279,3.15c-.03516.08421-.11643.24289-.11643.24289h-1.47164a1.534,1.534,0,0,0,.44918-.583,2.60977,2.60977,0,0,0-.44652-2.28251,3.193,3.193,0,0,1-.43468-2.99556c.04844-.11614.154-.315.154-.315Z" fill="#221f1f"/><circle cx="1684.65843" cy="376.39685" r="31.43165" fill="#fff"/><polygon points="747.666 616.543 747.792 607.981 762.136 607.981 762.136 616.892 747.666 616.543"/><ellipse cx="755.95079" cy="600.31643" rx="29.70045" ry="8.69829"/><path d="M775.60808,598.51328c0,1.08877-8.6562,1.97139-19.33417,1.97139s-19.33416-.88262-19.33416-1.97139,8.33308-2.27768,19.011-2.27768a125.70167,125.70167,0,0,1,15.44344,1.049C774.03158,597.62155,775.60808,598.04864,775.60808,598.51328Z" fill="#fff"/><polygon points="897.196 715.567 897.196 713.939 831.366 653.703 847.206 669.653 864.795 686.175 897.196 715.567" fill="#9a1c1f"/><path d="M733.50035,739.303,718.3263,628.91919a9.99166,9.99166,0,0,1,5.48953-5.15343c34.84721-13.24565,47.64716-8.98264,71.7461-3.64671a10.90819,10.90819,0,0,1,7.58743,6.17361l51.73133,50.91283,69.03085,62.45258a11.46887,11.46887,0,0,1-10.46308,16.20752l-169.5573-.28A11.46887,11.46887,0,0,1,733.50035,739.303Z" fill="#c02026"/><polygon points="750.465 731.364 729.993 636.375 760.221 731.364 750.465 731.364" fill="#e19798"/><path d="M814.50494,656.47964c1.09855,11.09179-11.58447,22.38707-24.74431,24.46322-18.34883,2.89478-40.32533-2.59447-42.01165-16.17248s11.74957-28.56769,30.32463-28.73052C801.07492,635.83823,813.39939,645.31711,814.50494,656.47964Z" fill="#fff"/><path d="M763.61906,658.81288a9.97329,9.97329,0,0,1,6.645,2.23689c2.11254,1.88875,1.73927,4.08622-.83469,4.9084a9.7,9.7,0,0,1-8.48353-1.93117c-1.616-1.4458-1.77651-3.07242-.61051-4.12476l7.99654,4.501Z" fill="#da1150"/><path d="M800.77046,662.05286l-1.37844-3.58528c-.18756-.42273-.293-.85619-.44043-1.28372l-.02026.00252c-.02526.45962-.00165.90271-.06814,1.36746l-.47349,3.7947-1.59373.19793,1.17881-7.97047,1.24621-.15477,3.18519,7.42848Z" fill="#221f1f"/><path d="M775.48977,657.36852l1.37954,3.585c.18722.42277.29263.85567.43957,1.28417l.02026-.00252c.02522-.45961.00227-.90351.06894-1.36847l.47248-3.79381,1.59426-.198-1.17806,7.97038-1.24734.15491-3.18424-7.4286Z" fill="#221f1f"/><path d="M782.13212,656.54358l.957,7.70522-1.52331.18918-.957-7.70521Z" fill="#221f1f"/><path d="M790.74066,655.47444l1.31056,4.45449.02026-.00251.04734-4.62314,2.04471-.25394,1.76466,7.6049-1.56346.19418-1.05764-5.50309-.02027.00251-.00978,1.93084-.20127,3.72982-1.17436.14585-1.20444-3.597-.46927-1.68462L790.21,657.73l-.01955.00243.46474,5.57673-1.63568.20314-.28262-7.789Z" fill="#221f1f"/><path d="M785.9076,656.07468a1.92465,1.92465,0,0,0-.49467.90648,2.48527,2.48527,0,0,0,.697,2.29823c.0664.08884.136.17917.20069.26933.99644,1.30766,1.45149,2.30553,1.02141,3.86162-.03081.11046-.10758.32092-.10758.32092l-1.83507.2279a1.92748,1.92748,0,0,0,.46982-.79656,3.27929,3.27929,0,0,0-.91027-2.77705c-.71256-1.01045-1.45-2.05521-1.00594-3.668.04242-.15232.1432-.41665.1432-.41665Z" fill="#221f1f"/><polygon points="895.806 730.142 803.668 633.132 902.35 731.364 895.806 730.142" fill="#e19798"/><path d="M938.195,747.90522l3.27857-2.18571c3.00032-2.39155,8.16985-2.56486,12.14826-1.77245,6.61717,1.318,13.73738,1.87994,11.38031,13.66531a32.26583,32.26583,0,0,1-4.75714,10.73571c-5.25213,7.8864-10.56429,15.94286-18.3988,16.73061-14.81836,1.49-20.672-.68791-24.18065-2.47773-6.73164-3.43394-12.85433-24.70908-17.87055-24.62431-34.97052.591-125.41748,4.49428-132.68572,9.08572s-12.17878,17.38519-15.57232,23.22223c-3.06246,5.2676-5.93306,11.805-20.253,12.45519-18.4318.83686-26.85169-5.58941-28.0318-6.62028-.83636-.73059-9.04993-9.62392-6.06379-16.71429,2.63522-6.25714,5.26049-8.06839,11.72477-9.8354,7.3513-2.00947,11.22473-1.65031,14.05786-6.29378,4.37353-7.16815,9.094-17.45623,11.54-21.61408,4.01531-6.82536,13.80991-13.60743,26.42686-15.05674,9.84062-1.13038,115.10233-5.94635,128.43883-6.87734,1.00486-.07015,19.568-.184,20.5326.0202,4.85833,1.02848,13.20289,6.796,19.685,18.17143,1.6066,2.81944,2.61262,6.76574,3.80074,8.57143C935.00118,748.93208,936.13781,748.54808,938.195,747.90522Z" fill="#97a1a3"/></g></g></svg>