<svg xmlns="http://www.w3.org/2000/svg" viewBox="0 0 1922.31512 1081.66601"><title>Asset 7Oversikt logo varianter</title><g id="Layer_2" data-name="Layer 2"><g id="Layer_1-2" data-name="Layer 1"><polygon points="1920.171 1080 0.171 1080 0.171 538.995 1920.171 538.591 1920.171 1080" fill="#4d8400"/><polygon points="918.481 538.591 263.405 1081.666 1798.033 1081.666 1221.342 538.999 918.481 538.591" fill="#636363"/><path d="M917.13872,625.14286c4.738,12.26835-4.40281,20.32017-22.03718,26.67139a59.12112,59.12112,0,0,1-30.32722,2.77022c-6.53179-1.159-14.325-1.30806-19.37044,2.73158-28.69495,22.97447-42.32889,29.06279-42.42167,54.21058s307.96392-5.19821,324.057-34.62462,51.71325-27.70817,27.00636-52.936-7.707-30.61034-61.4899-38.98867c-45.36821-7.06748-142.33844,17.28862-171.04555,28.52184C919.00238,614.48044,915.08158,619.81618,917.13872,625.14286Z" fill="#4f3914"/><polygon points="1920.171 538.591 0 499.254 0 0 1922.315 0 1920.171 538.591" fill="#007aca"/><path d="M1132.84743,567.31086s4.80961-12.90778,18.27707-11.99694c4.54964.30771,15.19369,3.993,12.94265,11.36609-1.78051,5.8319-4.60656,5.15882-18.58432,7.70321-13.55926,2.46821-13.85782,9.80829-18.01907,12.192C1122.349,589.5052,1132.84743,567.31086,1132.84743,567.31086Z" fill="#4f3914"/><path d="M1138.90444,581.50855a4.0674,4.0674,0,0,1,4.63881-.86034c.87955.44128,3.02271,2.43929,1.6258,3.3427s-1.27536-.03035-4.34127-.01967c-1.54948.0054-3.7815.14382-4.60377.9207C1134.2641,586.74365,1138.90444,581.50855,1138.90444,581.50855Z" fill="#4f3914"/><path d="M1125.32169,564.31436a4.06736,4.06736,0,0,1,.69891-4.66585c.7039-.68766,3.29142-2.06239,3.6901-.44728s-.44446,1.1958-1.43385,4.0977c-.5,1.46659-1.0968,3.6218-.63042,4.65241C1128.75806,570.40784,1125.32169,564.31436,1125.32169,564.31436Z" fill="#4f3914"/><path d="M897.20335,626.702s-3.92765-13.2029-17.42588-13.2029c-4.56,0-15.4285,2.95869-13.68012,10.46683,1.38293,5.93875,4.24795,5.4579,18.02216,8.93969,13.3618,3.37755,13.16439,10.721,17.1553,13.38013C906.18024,649.55421,897.20335,626.702,897.20335,626.702Z" fill="#4f3914"/><path d="M890.20211,640.45865a4.06738,4.06738,0,0,0-4.57018-1.17139c-.90733.38091-3.18043,2.22975-1.84766,3.22537s1.2745.05578,4.3327.27331c1.54559.11,3.76317.39867,4.53115,1.22926C894.47861,645.99494,890.20211,640.45865,890.20211,640.45865Z" fill="#4f3914"/><path d="M904.91414,624.2202a4.0674,4.0674,0,0,0-.38248-4.70239c-.65589-.73358-3.14475-2.27978-3.6515-.69525s.36275,1.22306,1.15407,4.18511c.39992,1.497.8499,3.68755.315,4.68435C901.07442,630.0679,904.91414,624.2202,904.91414,624.2202Z" fill="#4f3914"/><path d="M937.18846,195.04625c-.47422-.43866-3.721,2.519-3.721,2.519l4.61933,3.03224S941.30794,198.85683,937.18846,195.04625Z"/><path d="M.17112,278.35687c129.41176-38.254,182.51022-163.86809,244.27492-166.60052s211.76471-76.508,211.76471-76.508l98.52941,191.26993L752.7404,57.1078s116.621,97.97059,154.57036,89.77331S1291.53872,0,1291.53872,0l182.31909,240.18044L1713.253.54286,1922.31512,0l-2.144,538.59052-1920,.405Z" fill="#232323"/><polygon points="1169.547 46.386 1203.844 77.373 1272.227 68.458 1320.111 85.059 1354.93 80.289 1291.539 0 1169.547 46.386" fill="#fff"/><polygon points="661.618 135.008 709.71 195.002 768.648 152.763 818.739 154.829 848.794 126.329 752.258 56.708 661.618 135.008" fill="#fff"/><polygon points="387.299 66.509 428.224 116.086 479.444 80.349 456.211 35.248 387.299 66.509" fill="#fff"/><polygon points="1193.457 679.683 1193.568 672.097 1206.278 672.097 1206.278 679.992 1193.457 679.683"/><polygon points="1087.627 748.206 1133.893 711.934 1158.382 712.802 1140.879 751.662 1087.627 748.206" fill="#007aca"/><polygon points="1087.627 748.206 1094.257 775.41 1145.121 777.24 1140.879 751.662 1087.627 748.206" fill="#0062a3"/><polygon points="1310.642 748.206 1264.376 711.934 1239.888 712.802 1257.39 751.662 1310.642 748.206" fill="#007aca"/><polygon points="1310.642 748.206 1304.013 775.41 1253.149 777.24 1257.39 751.662 1310.642 748.206" fill="#0062a3"/><path d="M1131.68545,769.05462l37.33417-80.73546a7.04576,7.04576,0,0,1,3.871-3.634c24.573-9.34035,33.599-6.33423,50.59273-2.57153a7.69207,7.69207,0,0,1,5.35039,4.35341l11.78017,26.287,25.34255,56.551a8.08744,8.08744,0,0,1-7.37818,11.429l-119.56562-.19748A8.08743,8.08743,0,0,1,1131.68545,769.05462Z" fill="#007aca"/><rect x="1047.89219" y="751.33252" width="77.0724" height="80.75456" rx="32.28468" fill="#282827"/><ellipse cx="1109.35743" cy="790.27531" rx="7.51456" ry="19.46078" fill="#f7c72f"/><rect x="1275.22049" y="751.72112" width="77.0724" height="80.75456" rx="32.28468" transform="translate(-7.48038 12.5414) rotate(-0.5454)" fill="#282827"/><ellipse cx="1290.84235" cy="793.75109" rx="7.51456" ry="19.46078" transform="translate(-7.49715 12.32335) rotate(-0.5454)" fill="#f7c72f"/><path d="M1313.57108,802.40868h0a11.166,11.166,0,0,1,10.79078-2.06391c6.1147,2.17742,13.76514,7.56289,9.90072,20.73558a11.64367,11.64367,0,0,1-2.87783,4.89495c-5.1243,5.19061-19.59956,18.63877-25.38431,19.68214-13.89874,2.50686-19.96567-2.71616-23.12172-5.13816-6.05512-4.6468-13.77642-35.06192-18.49737-35.4533-32.912-2.72853-116.12242-4.11053-123.31584.51381s-11.27132,21.19243-14.9217,27.64225c-3.29425,5.8206-6.50107,12.16554-20.01779,12.492-17.13606.41393-41.90171-21.54237-42.92934-22.85523a14.11536,14.11536,0,0,1-.19876-14.88395c3.54721-5.89079,13.0831-8.94294,18.187-4.33488,3.49483,3.15532,13.91272,10.77487,17.72666,9.76251,7.74288-2.05527,14.34969-24.81148,16.97695-29.403,4.31281-7.53729,14.23269-13.93526,26.20462-14.38685,9.33753-.35222,108.88755-.244,121.49477-.0232a60.89261,60.89261,0,0,1,7.57579.98861c4.48462,1.66929,16.28432,6.25249,21.47753,20.101a80.95977,80.95977,0,0,0,3.549,8.25805C1299.47924,805.39106,1301.8689,816.99924,1313.57108,802.40868Z" fill="#97a1a3"/><polygon points="1145.867 763.456 1177.247 693.577 1150.528 763.456 1145.867 763.456" fill="#03a5ff"/><polyline points="1247.356 763.456 1252.017 763.456 1220.638 693.577" fill="#03a5ff"/><ellipse cx="1199.13484" cy="710.8674" rx="23.71776" ry="17.46974" fill="#fff"/><ellipse cx="1200.79778" cy="665.30527" rx="26.31649" ry="7.70724"/><path d="M1218.21539,663.70757c0,.96471-7.66995,1.74677-17.1313,1.74677s-17.13131-.78206-17.13131-1.74677,7.38364-2.01817,16.845-2.01817a111.3794,111.3794,0,0,1,13.68387.92945C1216.81851,662.91743,1218.21539,663.29587,1218.21539,663.70757Z" fill="#fff"/><polygon points="1139.762 751.589 1157.709 712.778 1137.938 751.471 1139.762 751.589" fill="#0062a3"/><polyline points="1258.115 751.589 1260.109 751.662 1240.221 712.754" fill="#0062a3"/><path d="M1187.04053,708.07768a7.03278,7.03278,0,0,1,4.4557,2.14287c1.31418,1.50532.862,3.01064-1.01069,3.36229a6.84007,6.84007,0,0,1-5.76883-2.08871c-1.00522-1.1522-.97616-2.30443-.06875-2.93951l5.2047,3.8447Z" fill="#da1150"/><path d="M1212.757,713.5738l-.653-2.62873c-.09452-.31212-.13066-.62462-.19665-.93661h-.01439c-.05762.31944-.07961.63157-.16654.951l-.66113,2.61433h-1.13247l1.51763-5.47518h.88553l1.58334,5.47518Z" fill="#221f1f"/><path d="M1195.473,708.09862l.65382,2.6286c.09427.31212.13041.62421.196.93685h.01439c.0576-.31944.08012-.63207.16718-.95165l.66036-2.6138h1.13284l-1.51709,5.47518h-.88633l-1.58268-5.47518Z" fill="#221f1f"/><path d="M1200.193,708.09862v5.47518h-1.08244v-5.47518Z" fill="#221f1f"/><path d="M1206.31,708.09862l.53,3.2311h.0144l.43492-3.2311h1.45293l.57395,5.47518h-1.111l-.26185-3.94291h-.0144l-.17465,1.35032-.465,2.59259h-.83448l-.53024-2.62179-.182-1.21966v-.10146h-.01388l-.15946,3.94291H1204.407l.47916-5.47518Z" fill="#221f1f"/><path d="M1202.87575,708.09862a1.35713,1.35713,0,0,0-.42495.59135,1.75251,1.75251,0,0,0,.288,1.66885c.03874.06794.0796.1372.117.20592a2.78919,2.78919,0,0,1,.37915,2.79108c-.03115.07462-.10317.21522-.10317.21522h-1.304a1.35934,1.35934,0,0,0,.398-.51659,2.31245,2.31245,0,0,0-.39564-2.02245,2.82918,2.82918,0,0,1-.38516-2.65426c.04292-.10291.13642-.27912.13642-.27912Z" fill="#221f1f"/><text transform="translate(185.29471 984.4634)" font-size="50" fill="#fff" font-family="MarioKartF2, Mario Kart F2">Press any button to start</text><path d="M951.57553,730.57143c-1.46752.51879-9.76136,5.92908-11.29395,5.65714-1.046-.1856-6.4029,3.34136-7.21088,3.98826-4.59518,3.67911-6.77851,4.65409-6.79336,8.68123s49.317-.83244,51.89417-5.54475,8.2813-4.43716,4.32477-8.47713-1.2342-4.90191-9.84693-6.2436A49.03513,49.03513,0,0,0,951.57553,730.57143Z" fill="#4f3914"/><path d="M666.74038,263.72324c20.34651-3.42588,44.91588,1.02588,61.133,12.15911,20.77526,14.24819,19.98528,34.04746-1.77277,44.22578-21.74616,10.18539-56.22046,6.88082-76.9946-7.37114-15.89352-10.908-19.15974-25.0667-10.07717-35.6719l75.62566,30.58258Z" fill="#fff"/><path d="M997.98032,250.00623l-16.23371-30.04148c-2.13479-3.51361-3.55813-7.21524-5.3442-10.81688l-.17578.04525c.30043,4.08108,1.0129,7.96082.95554,12.134l.14425,33.99562-13.82612,3.559,1.32184-71.61479L975.6334,184.484l36.53738,61.86948Z" fill="#fff"/><path d="M769.75688,237.47846,786,267.51577c2.13181,3.51434,3.55388,7.21106,5.33708,10.82181l.17577-.04525c-.30075-4.08095-1.00827-7.96859-.9497-12.14383l-.15205-33.98662,13.8307-3.56015-1.31527,71.61309-10.82111,2.78545-36.52919-61.87159Z" fill="#fff"/><path d="M827.38159,222.64534l17.20661,66.8454-13.21527,3.40173-17.20661-66.8454Z" fill="#fff"/><path d="M902.06366,203.42151l16.62454,37.78227.17578-.04525-4.84433-40.8146,17.73856-4.56607L955.972,260.81955l-13.56359,3.49139-15.58808-47.31535-.17579.04524,2.11127,17.03473,2.47045,33.11377-10.188,2.62248-14.713-30.34254-6.05471-14.31876-.31886-1.23871-.16956.04365,10.44449,48.63936-14.19013,3.65266L884.68,207.89623Z" fill="#fff"/><path d="M860.1352,214.21427c-1.85889,2.17935-2.88631,5.40573-3.32969,8.55508-1.31178,9.21888,4.04129,14.6681,8.76095,19.46955.68653.70773,1.40306,1.42485,2.076,2.14621,10.27361,10.39512,15.42133,18.67516,13.4004,32.88421-.14587,1.00892-.58323,2.95184-.58323,2.95184l-15.91985,4.09791a17.13578,17.13578,0,0,0,3.23565-7.55776c1.38886-9.76681-5.00216-16.71811-11.18619-23.44835-7.43239-8.09788-15.12314-16.46992-13.04372-31.19489.20066-1.39126.78835-3.8364.78835-3.8364Z" fill="#fff"/><path d="M1161.82255,200.84327l25.85306,10.70443-9.717,23.7546L1211.6059,221.618a1.51958,1.51958,0,0,1,.67778.11959L1240.2401,233.315a.32208.32208,0,0,1,.184.44019l-34.79344,14.30021-.07134.17164q.41375.17365,14.43006,34.4812l-.07126.1725-27.991-11.59073-14.57191-33.65048-.31034-.12828-9.83175,23.54456-26.2311-10.86222,20.40369-49.16842C1161.515,200.83661,1161.66183,200.77615,1161.82255,200.84327Z" fill="#fff"/><path d="M1310.73573,262.46564l-3.54946,56.51317-26.072-10.75637,2.99552-45.90422-30.33118,34.58428-26.21678-10.896,37.2695-42.54906Z" fill="#fff"/><path d="M1337.89,273.83268l48.31979,20.00926q25.1613,10.41958,25.348,23.1527a21.2238,21.2238,0,0,1-1.08332,5.2528q-3.73243,9.00716-20.34683,11.83188l-.137-.05711-.05711.137,9.292,22.77115-.07126.17251-27.75-11.49093-12.68184-28.05654.12827-.31034.17164.07134q4.03924,1.67237,13.03542.05981a7.31893,7.31893,0,0,0,4.721-4.27084q1.31264-3.17637-.98014-7.40094a6.26031,6.26031,0,0,0-2.92529-2.30368l-14.28942-5.91688-15.00778,36.24036a.2974.2974,0,0,1-.44043.18136l-26.05772-10.791,20.33864-49.11488A.3641.3641,0,0,1,1337.89,273.83268Z" fill="#fff"/><path d="M1434.52693,313.76816l78.865,32.65884q.33.17771.2169.45459l-5.24289,12.95119-26.68022-11.04829-14.892,35.96453a.29621.29621,0,0,1-.4387.1812l-25.7838-10.67684a.29559.29559,0,0,1-.18024-.43791l14.892-35.96453L1429.066,326.95318a.29614.29614,0,0,1-.18206-.43861l5.20259-12.56418A.32156.32156,0,0,1,1434.52693,313.76816Z" fill="#fff"/><path d="M1030.93612,83.46759s3.386.12754,3.20042,2.453-4.93049,38.53422,37.39567,36.71811c0,0,7.13854-5.05253,8.74913-5.92286s7.55633-3.13559,8.81184-4.2055,14.81309-12.88768,33.41177-12.05972c0,0,3.48812.27839,7.844-5.31016,0,0,3.70847-4.27033,5.67414-4.94109s2.42287-.32034,3.49279.93517,1.8822,1.8055,1.94025,2.86609,1.07457,1.91228-1.48983,3.6483-10.66141,6.99744-11.29488,10.286-.12288,4.04278-1.96313,8.14828-12.25906,13.57844-15.94263,15.85212-18.52,11.87748-18.95388,14.81094,11.77448,9.18734,20.69737,9.08624c0,0,4.778-.37483,4.9568,3.46372s-1.79113,1.21254-1.79113,1.21254-25.84862,19.69843-33.56132-6.31718c0,0-27.22407,29.64866-1.69066,39.42066,0,0,3.04957,2.55508.8983,5.55126a10.57324,10.57324,0,0,0-1.78008-1.65466c-1.47372-1.20211-43.7609-15.25079-14.43006-61.28415a2.43912,2.43912,0,0,0-2.33008-.84237c-1.26016.41313-43.79522,1.27077-33.033-48.47063Z" fill="#f7c72f"/><path d="M1136.02313,90.19933c.71949,1.71271.37373,2.82669,1.59915,4.63685s1.31392,3.65453,2.34406,2.81271,1.95047-1.31876,1.72015-2.48353.57845-.65017-1.07773-3.34526C1138.25721,87.99344,1136.02313,90.19933,1136.02313,90.19933Z"/><path d="M1115.67486,160.50872c-.61413-2.23493-1.09569-3.92034-1.23562-4.49663-.06342-.26117,2.375.48875,2.90689,2.34911.28569.99922.10207,4.28716-.472,3.53544A16.73376,16.73376,0,0,0,1115.67486,160.50872Z"/><path d="M1029.748,86.91165c-.11871.60787,4.238.82444,4.238.82444s2.19972-4.96256-3.04984-4.2685C1030.93612,83.46759,1030.442,83.35791,1029.748,86.91165Z"/><path d="M1076.53813,123.20942c1.1233,1.65932,4.53473-1.75,4.53473-1.75" fill="none" stroke="#000" stroke-miterlimit="10" stroke-width="0.02"/><ellipse cx="1096.54999" cy="123.66731" rx="4.8158" ry="2.18594" transform="translate(119.17811 635.97552) rotate(-34.09669)"/><ellipse cx="1092.4122" cy="115.10294" rx="4.8158" ry="2.18594" transform="translate(123.26791 632.18363) rotate(-34.09669)"/><ellipse cx="1097.70385" cy="122.59289" rx="2.4079" ry="1.09297" transform="translate(119.97878 636.43766) rotate(-34.09669)" fill="#fff"/><ellipse cx="1093.16572" cy="114.37285" rx="2.4079" ry="1.09297" transform="translate(123.80672 632.48054) rotate(-34.09669)" fill="#fff"/><path d="M1084.59433,130.88557s-2.93646,1.3692-3.21358,3.70158" fill="none" stroke="#000" stroke-miterlimit="10" stroke-width="0.02"/><path d="M1078.55825,123.41115s-2.60235,4.80988,4.2085,8.73737l-.57081.61517S1075.46951,129.4499,1078.55825,123.41115Z"/><path d="M1138.29673,96.43273s-15.336,8.91543-16.01282,10.84015.35833,5.40351-7.03318,10.40731-19.09952,14.02963-20.90968,15.255-3.88728.43178-4.67626,3.16567-2.28367,4.40568-3.60179,4.41809-1.98887-1.95326-6.35878,1.665-20.85154,19.24028-10.1139,39.326c0,0-2.279-10.72261,12.52322-27.3184,0,0,2.48079,10.72106,11.60281,13.088,4.39268,1.13981,13.53477-.40833,21.95851-6.77085l-1.23562-4.49663s-20.40624-2.41038-22.62742-9.26587c0,0,8.28066-7.7046,10.1275-8.97945s9.78814-6.44852,10.50531-7.00611,6.52349-5.47615,8.57951-7.63994,4.61189-4.51509,5.68419-7.03756c2.56084-6.02409.89342-5.26215,1.96313-7.29819s11.29488-11.13608,11.29488-11.13608Z" fill="#c59a2d"/><path d="M1221.34153,538.99871c-20.981-193.75123-129.08852-175.62728-146.16861-176.7-36.31208-2.28053-96.92467,18.28632-124.38391,55.31489-31.21153,42.0885-32.30771,120.97689-32.30771,120.97689" fill="#353535"/><circle cx="1405.75037" cy="845.88287" r="79.00182" fill="#f4bd42" stroke="#dbab2f" stroke-miterlimit="10" stroke-width="18"/><ellipse cx="854.83557" cy="656.62704" rx="16.1477" ry="40.78594" fill="#f4bd42" stroke="#dbab2f" stroke-miterlimit="10" stroke-width="18"/><circle cx="1202.35646" cy="545.74159" r="13.6447" fill="#f4bd42" stroke="#dbab2f" stroke-miterlimit="10" stroke-width="10"/><path d="M1432.68,880.11692a11.53646,11.53646,0,1,1,11.53657-11.53646A11.54941,11.54941,0,0,1,1432.68,880.11692Zm0-19.95972a8.42327,8.42327,0,1,0,8.42338,8.42326A8.43272,8.43272,0,0,0,1432.68,860.1572Z" fill="#232323"/><path d="M1383.37262,868.68961a.8894.8894,0,0,1-1.12916-.55435l-.947-2.77418c-2.85716-9.40449-7.89133-11.33156-14.57092-11.33156-6.02319,0-12.2449,3.6398-12.75083,9.78011a.88644.88644,0,0,1-.88462.81138h-.00053a.89244.89244,0,0,1-.88766-.96678c.58738-7.16013,7.66833-11.40368,14.52364-11.40368,6.462,0,12.90488,1.52391,16.26867,12.57882l.93261,2.73117a.8894.8894,0,0,1-.55423,1.12907Z" fill="#232323"/><path d="M1418.16854,865.01873l-1.7781-.0506c.20609-7.24756,7.38275-13.64778,15.04455-13.4316l-.05038,1.77832C1424.64291,853.12255,1418.34835,858.70212,1418.16854,865.01873Z" fill="#232323"/><path d="M1383.35451,864.62105h34.8308a0,0,0,0,1,0,0v3.72929a1.7968,1.7968,0,0,1-1.7968,1.7968h-33.034a1.7968,1.7968,0,0,1-1.7968-1.7968v-1.9325A1.7968,1.7968,0,0,1,1383.35451,864.62105Z" fill="#232323"/><rect x="1430.74467" y="804.49846" width="3.87067" height="64.84328" rx="1.93533" fill="#232323"/><rect x="1422.36464" y="802.43969" width="18.59707" height="4.11754" rx="2.05877" transform="translate(-197.11125 594.80563) rotate(-21.997)" fill="#232323"/><circle cx="1432.68" cy="868.58044" r="3.74237" fill="#232323"/><path d="M1366.72557,880.226a11.5364,11.5364,0,1,1,11.53656-11.53646A11.54942,11.54942,0,0,1,1366.72557,880.226Zm0-19.95961a8.42321,8.42321,0,1,0,8.42337,8.42315A8.43263,8.43263,0,0,0,1366.72557,860.26643Z" fill="#232323"/><circle cx="1366.72562" cy="868.68963" r="3.74237" fill="#232323"/><path d="M1435.26032,850.412l3.22708-2.50614a.72059.72059,0,0,1,1.16257.56913v7.42408a.72059.72059,0,0,1-1.13815.58728l-3.17084-2.25449A2.38027,2.38027,0,0,1,1435.26032,850.412Z" fill="#232323"/><circle cx="1402.20462" cy="836.96635" r="18.22981" fill="#fff"/><polygon points="1404.029 825.241 1395.926 837.738 1402.1 837.738 1400.502 848.606 1408.484 834.808 1402.205 834.39 1404.029 825.241" fill="#f7c72f"/><circle cx="719.2769" cy="791.70981" r="64.58806" fill="#f4bd42" stroke="#dbab2f" stroke-miterlimit="10" stroke-width="18"/><rect x="705.04414" y="775.65373" width="28.36826" height="37.07799" rx="7.99106" fill="#232323"/><circle cx="719.2883" cy="785.97883" r="3.11247" fill="#fff"/><circle cx="719.22827" cy="800.63734" r="5.80219" fill="#fff"/><circle cx="719.22827" cy="800.63734" r="3.05244" fill="#232323"/><path d="M748.74383,796.424l-.94715-1.14733c2.611-2.15475,3.89609-4.37648,3.81967-6.60358-.11708-3.407-3.37166-5.77557-3.40449-5.7991l.86579-1.2095c.15864.11345,3.8833,2.82662,4.02538,6.95761C753.196,791.33481,751.72937,793.9598,748.74383,796.424Z" fill="#232323"/><path d="M753.646,799.37786l-.94715-1.14733c3.81154-3.14548,5.68869-6.40689,5.57974-9.69358-.16647-5.01654-4.956-8.51953-5.00448-8.55425l.86667-1.20906c.22168.15863,5.42663,3.94969,5.62419,9.70259C759.89459,792.25189,757.83586,795.91976,753.646,799.37786Z" fill="#232323"/><path d="M744.02349,794.35609l-.94715-1.14732c1.76675-1.45791,2.63836-2.94865,2.59129-4.43053-.07234-2.26269-2.26821-3.87691-2.29029-3.89289l.86725-1.20848c.11447.08193,2.80628,2.04275,2.90913,5.04137C747.22142,790.6888,746.16823,792.58571,744.02349,794.35609Z" fill="#232323"/><path d="M689.97889,793.24871c-.16619-.102-4.07361-2.54494-4.50709-6.65545-.28443-2.69951.99277-5.42154,3.797-8.09069l1.02559,1.0776c-2.44864,2.33067-3.57359,4.63462-3.34407,6.84778.35039,3.37835,3.77319,5.53238,3.80776,5.55374Z" fill="#232323"/><path d="M685.13246,796.49037c-.23214-.14251-5.69189-3.55616-6.29562-9.28073-.39629-3.75707,1.39806-7.5612,5.33307-11.30693l1.02559,1.0776c-3.5794,3.40711-5.22151,6.793-4.88042,10.06372.52064,4.99228,5.54546,8.14779,5.59631,8.17917Z" fill="#232323"/><path d="M694.65739,790.89988c-.12029-.07365-2.94371-1.83924-3.25836-4.823-.20657-1.961.70978-3.92747,2.72435-5.845l1.02559,1.07759c-1.66244,1.58226-2.42626,3.13387-2.27054,4.61139a5.75322,5.75322,0,0,0,2.557,3.71145Z" fill="#232323"/><circle cx="1314.38099" cy="626.40393" r="46.70888" fill="#f4bd42" stroke="#dbab2f" stroke-miterlimit="10" stroke-width="18"/><rect x="1304.06763" y="600.22158" width="19.84554" height="50.41441" rx="1.33064" fill="#007aca"/><rect x="1299.98542" y="612.82518" width="28.00996" height="25.2072" rx="1.11782" fill="#fff"/><path d="M1326.87755,639.14127h-25.77432a2.22928,2.22928,0,0,1-2.22672-2.22672V613.943a2.22926,2.22926,0,0,1,2.22672-2.22666h25.77432a2.22926,2.22926,0,0,1,2.22672,2.22666v22.97156A2.22927,2.22927,0,0,1,1326.87755,639.14127Zm.00043-25.20732-25.77475.00011-.00909.00861.00011,22.97188.00866.0091,25.77464-.00011.001,0,.00813-.00851-.00011-22.972Z" fill="#0062a3"/><path d="M1314.00029,621.48726a3.87034,3.87034,0,0,1,1.81153-1.496,3.501,3.501,0,0,1,4.7502,3.25065,4.36768,4.36768,0,0,1-1.36162,3.27772c-.83361.83079-1.7064,1.624-2.58773,2.40469a16.18444,16.18444,0,0,0-2.38406,2.47426c-.22189.30167-.27063.29133-.48267-.00741a18.89082,18.89082,0,0,0-2.886-2.961,24.93306,24.93306,0,0,1-2.40168-2.32812,4.05125,4.05125,0,0,1-.91367-3.7023,3.31944,3.31944,0,0,1,2.57715-2.53053,3.43053,3.43053,0,0,1,3.45182,1.0949C1313.72634,621.12287,1313.85366,621.30605,1314.00029,621.48726Zm.006,9.76919c.03331-.05361.05242-.08852.07538-.12069a16.17535,16.17535,0,0,1,2.43445-2.50815c.91751-.83016,1.83288-1.66729,2.68984-2.55845a3.78141,3.78141,0,0,0,1.0459-3.12974,3.20367,3.20367,0,0,0-4.42655-2.64574,3.48,3.48,0,0,0-1.652,1.47526c-.1423.23212-.2144.23122-.35906.00669-.03837-.05955-.071-.12282-.10946-.1823a3.23354,3.23354,0,0,0-5.33167-.26374,3.36431,3.36431,0,0,0-.34219,3.4883,5.82085,5.82085,0,0,0,1.60313,2.1528A30.10209,30.10209,0,0,1,1314.00628,631.25645Z" fill="#007aca"/><rect x="1006.06732" y="556.14368" width="47.10273" height="47.10273" rx="19.27567" fill="#282827"/><polygon points="964.769 598.882 962.478 609.982 992.146 611.049 989.672 596.13 964.769 598.882" fill="#9a1c1f"/><polygon points="1074.275 593.402 1034.752 571.514 1031.419 571.278 1058.179 596.407 1074.275 593.402" fill="#c02026"/><polygon points="1074.275 593.402 1078.95 610.651 1073.626 611.26 1057.924 596.173 1074.275 593.402" fill="#9a1c1f"/><polyline points="1057.924 596.173 1058.496 596.053 1031.269 571.278" fill="#9a1c1f"/><rect x="1057.08025" y="584.63386" width="44.95498" height="47.10273" rx="18.83109" fill="#282827"/><ellipse cx="1079.82588" cy="608.46505" rx="9.07489" ry="11.35113" fill="#f7c72f"/><polygon points="984.925 561.084 984.925 591.051 989.672 596.13 984.925 561.084" fill="#9a1c1f"/><rect x="933.71129" y="558.11078" width="42.70751" height="47.10273" rx="18.35434" fill="#282827"/><ellipse cx="949.70356" cy="580.62515" rx="7.44672" ry="10.94983" fill="#f7c72f"/><polygon points="969.099 598.025 949.704 576.446 969.814 574.882 989.672 596.13 969.099 598.025" fill="#c02026"/><polygon points="949.704 576.446 953.723 596.13 966.626 612.103 969.337 596.67 949.704 576.446" fill="#9a1c1f"/><rect x="951.57553" y="594.11099" width="44.95498" height="47.10273" rx="18.83109" fill="#282827"/><ellipse cx="966.94674" cy="617.49858" rx="7.10628" ry="11.35113" fill="#f7c72f"/><path d="M969.81443,574.88176l-.10069-3.98576a.48792.48792,0,0,1,.78766-.39721l14.84507,11.567-.42118,8.98544Z" fill="#9a1c1f"/><path d="M978.366,564.1507l6.10415-3.9391c.03838-.02476,3.31068-1.46828,3.352-1.48769,2.58385-1.21321-.52359,2.68079-.52359,3.0048l3.51247,19.93343c0,.53092,2.13272,7.41108-2.39825,4.79148l-18.699-15.55762C969.44668,570.53382,978.02445,564.1854,978.366,564.1507Z" fill="#c02026"/><polygon points="996.993 555.994 997.045 552.472 1002.945 552.472 1002.945 556.137 996.993 555.994"/><ellipse cx="1000.4006" cy="549.31928" rx="12.21608" ry="3.57769"/><path d="M1008.48583,548.57762c0,.44782-3.56038.81085-7.95233.81085s-7.95232-.363-7.95232-.81085,3.42747-.93683,7.81942-.93683a51.70324,51.70324,0,0,1,6.352.43145C1007.8374,548.21084,1008.48583,548.38651,1008.48583,548.57762Z" fill="#fff"/><polygon points="1058.496 596.723 1058.496 596.053 1031.419 571.278 1037.935 577.838 1045.169 584.634 1058.496 596.723" fill="#9a1c1f"/><path d="M991.16652,606.48576l-6.24123-45.40189a4.10964,4.10964,0,0,1,2.25789-2.11966c14.333-5.44806,19.59773-3.69465,29.50986-1.49993a4.48664,4.48664,0,0,1,3.12078,2.53927l21.27759,20.94093,28.393,25.68735a4.71725,4.71725,0,0,1-4.30357,6.6663l-69.74053-.11518A4.71726,4.71726,0,0,1,991.16652,606.48576Z" fill="#c02026"/><polygon points="998.144 603.22 989.724 564.151 1002.157 603.22 998.144 603.22" fill="#e19798"/><path d="M1024.48448,572.41974c.45184,4.56216-4.7648,9.208-10.17757,10.062-7.54705,1.19065-16.5862-1.06713-17.2798-6.6519s4.83272-11.75016,12.47282-11.81714C1018.96058,563.92973,1024.02976,567.82849,1024.48448,572.41974Z" fill="#fff"/><path d="M1003.55463,573.37942a4.10206,4.10206,0,0,1,2.73316.92006c.86891.77686.71538,1.6807-.34331,2.01887a3.98969,3.98969,0,0,1-3.48936-.79431c-.66468-.59467-.73069-1.26371-.25111-1.69655l3.28906,1.85129Z" fill="#da1150"/><path d="M1018.83536,574.71206l-.567-1.47466c-.07714-.17387-.12053-.35216-.18115-.528l-.00833.001c-.01039.18905-.00068.37129-.028.56245l-.19475,1.5608-.65552.08141.48486-3.27833.51258-.06366,1.31009,3.0554Z" fill="#221f1f"/><path d="M1008.43717,572.78535l.56742,1.47452c.077.17389.12036.35194.18079.52819l.00834-.001c.01037-.189.00093-.37163.02835-.56287l.19434-1.56043.65573-.08144-.48454,3.27829-.513.06372-1.30971-3.05545Z" fill="#221f1f"/><path d="M1011.16923,572.446l.3936,3.16923-.62655.07781-.3936-3.16923Z" fill="#221f1f"/><path d="M1014.71,572.00629l.539,1.83218.00834-.001.01947-1.90154.841-.10444.72583,3.128-.64307.07987-.435-2.26347-.00833.001-.004.79417-.08278,1.53411-.483.06-.4954-1.47946-.193-.69291-.00729-.05873-.008.001.19115,2.29376-.67277.08356-.11625-3.20368Z" fill="#221f1f"/><path d="M1012.72212,572.25318a.79162.79162,0,0,0-.20346.37284,1.02225,1.02225,0,0,0,.28668.94529c.02731.03654.056.07369.08255.11077a1.62688,1.62688,0,0,1,.42011,1.58832c-.01267.04544-.04424.132-.04424.132l-.75478.09374a.79286.79286,0,0,0,.19324-.32763,1.34882,1.34882,0,0,0-.37441-1.14223,1.6502,1.6502,0,0,1-.41375-1.50869c.01745-.06265.0589-.17137.0589-.17137Z" fill="#221f1f"/><polygon points="1057.924 602.718 1020.027 562.816 1060.616 603.22 1057.924 602.718" fill="#e19798"/><path d="M1075.35937,610.024l1.3485-.899c1.23406-.98366,3.36034-1.05495,4.9967-.729,2.7217.5421,5.65032.77323,4.68083,5.62067a13.27108,13.27108,0,0,1-1.95666,4.4157c-2.16025,3.24375-4.34519,6.55745-7.5676,6.88146-6.09493.61284-8.50259-.28294-9.94573-1.01912-2.76879-1.41241-5.28711-10.16308-7.35033-10.12821-14.38371.2431-51.58541,1.84854-54.5749,3.737s-5.00925,7.1507-6.405,9.55153c-1.25962,2.16661-2.44032,4.85552-8.33026,5.12294-7.58118.34421-11.04436-2.299-11.52975-2.723-.344-.3005-3.72232-3.95842-2.49409-6.87475,1.08389-2.57362,2.16369-3.31861,4.82251-4.0454,3.02366-.82651,4.61684-.67878,5.78213-2.58869,1.79887-2.94833,3.74044-7.17991,4.74652-8.89008,1.65153-2.80733,5.68014-5.59686,10.86962-6.193,4.04754-.46493,47.34269-2.44579,52.82812-2.82871.4133-.02886,8.04851-.07568,8.44525.00831,1.99828.423,5.43048,2.79524,8.09662,7.47408.66081,1.15966,1.0746,2.78281,1.56328,3.52551C1074.04574,610.44631,1074.51324,610.28837,1075.35937,610.024Z" fill="#97a1a3"/></g></g></svg>