<svg width="2500" height="2549" transform='rotate(90)' viewBox="200 0 1000 1349" fill="none" xmlns="http://www.w3.org/2000/svg">
<path d="M334.689 324.239L522.73 2L564.045 76.055L702.506 324.239L626.05 304.224L778.963 546.404L665.311 502.371L867.817 752.557L721.104 718.532L933.942 972.721L760.365 954.707L998 1200.89H2L245.834 936.694L74.3237 972.721L316.091 718.532L169.378 752.557L373.95 502.371L262.365 546.404L417.344 304.224L334.689 324.239Z" fill="#4A7D5B"/>
<path d="M522.73 2L334.689 324.239L417.344 304.224L262.365 546.404L373.95 502.371L169.378 752.557L316.091 718.532L74.3237 972.721L245.834 936.694L2 1200.89H998L760.365 954.707L933.942 972.721L721.104 718.532L867.817 752.557L665.311 502.371L778.963 546.404L626.05 304.224L702.506 324.239L522.73 2ZM522.73 2L564.045 76.055" stroke="#4A7D5B"/>
<path d="M418.174 1200.89H595.884V1349H418.174V1200.89Z" fill="#AC6625"/>
<ellipse cx="419.411" cy="566.419" rx="37.195" ry="36.0267" fill="#DC9832"/>
<ellipse cx="345.021" cy="1034.77" rx="37.195" ry="36.0267" fill="#E7B6EF"/>
<ellipse cx="612" cy="265" rx="36" ry="33" fill="#E7B6EF"/>
<ellipse cx="654.979" cy="902.669" rx="37.195" ry="36.0267" fill="#DC9832"/>
<ellipse cx="828.556" cy="1142.85" rx="37.195" ry="36.0267" fill="#DC3D32"/>
</svg>
